<?xml version="1.0" standalone="no"?>
<!DOCTYPE svg PUBLIC "-//W3C//DTD SVG 20010904//EN"
 "http://www.w3.org/TR/2001/REC-SVG-20010904/DTD/svg10.dtd">
<svg version="1.0" xmlns="http://www.w3.org/2000/svg"
 width="2846.000000pt" height="1600.000000pt" viewBox="0 0 2846.000000 1600.000000"
 preserveAspectRatio="xMidYMid meet">

<g transform="translate(0.000000,1600.000000) scale(0.100000,-0.100000)"
fill="#141e50" stroke="none">
<path d="M13644 13180 c-12 -5 -29 -19 -38 -32 -15 -20 -16 -300 -16 -3229 0
-2103 4 -3243 10 -3310 48 -487 245 -893 570 -1176 184 -160 510 -350 619
-361 50 -4 53 -3 91 37 67 71 54 95 -98 176 -201 107 -333 207 -490 369 -214
222 -353 500 -418 836 -18 91 -19 233 -24 3365 -3 1825 -9 3278 -14 3288 -5
10 -21 24 -37 32 -30 16 -121 19 -155 5z"/>
<path d="M21771 13176 c-49 -27 -50 -39 -51 -384 0 -356 2 -368 60 -392 66
-27 165 -6 190 39 15 29 14 662 -2 696 -7 15 -24 33 -39 41 -35 18 -126 18
-158 0z"/>
<path d="M24391 13164 l-31 -26 3 -3287 c2 -3100 3 -3291 20 -3381 55 -292
131 -495 265 -700 176 -272 425 -482 767 -647 149 -72 217 -66 262 21 22 42 4
66 -86 116 -167 94 -216 125 -311 196 -401 302 -618 705 -660 1228 -6 85 -10
1203 -10 3292 l0 3162 -31 26 c-26 22 -40 26 -94 26 -54 0 -68 -4 -94 -26z"/>
<path d="M4650 13155 c-268 -43 -495 -157 -675 -339 -232 -234 -366 -536 -441
-996 -22 -135 -32 -960 -14 -1135 43 -419 182 -727 450 -996 208 -209 413
-342 910 -590 465 -233 626 -335 805 -514 232 -231 345 -496 385 -904 13 -135
13 -979 0 -1112 -82 -805 -513 -1277 -1170 -1279 -168 0 -375 47 -512 116
-291 147 -498 438 -598 839 -54 217 -62 292 -66 655 -3 184 -9 352 -14 372
-26 95 -170 113 -227 29 -16 -23 -18 -57 -21 -261 -4 -270 10 -526 39 -702
122 -748 526 -1205 1153 -1305 152 -24 464 -14 606 20 597 142 952 600 1056
1362 22 162 31 958 14 1190 -54 726 -291 1141 -849 1483 -98 60 -224 124 -615
311 -281 135 -470 263 -647 440 -273 273 -410 561 -450 947 -16 163 -6 778 15
934 93 658 394 1054 880 1154 285 59 592 8 818 -137 70 -44 187 -154 243 -227
102 -133 183 -308 235 -504 62 -236 80 -415 80 -804 0 -312 3 -332 59 -365 16
-9 49 -17 74 -17 56 0 102 34 117 88 13 48 13 450 0 662 -23 357 -85 628 -201
869 -194 406 -518 651 -949 716 -118 18 -375 18 -490 0z"/>
<path d="M9625 13154 c-420 -65 -746 -301 -950 -686 -89 -170 -156 -390 -197
-651 l-23 -142 0 -2565 c0 -2751 -2 -2622 51 -2888 87 -439 295 -788 586 -982
143 -96 279 -152 468 -195 99 -22 424 -32 544 -16 599 80 1017 507 1159 1186
59 279 57 164 57 2880 0 2194 -2 2506 -16 2625 -95 825 -512 1335 -1174 1435
-119 19 -384 18 -505 -1z m405 -264 c244 -30 462 -132 619 -289 205 -205 329
-480 394 -873 l21 -133 4 -2405 c2 -1724 0 -2446 -8 -2549 -61 -775 -411
-1249 -988 -1336 -300 -46 -605 21 -826 179 -77 55 -210 193 -263 271 -156
232 -246 532 -273 915 -14 198 -14 4652 0 4850 27 379 110 661 266 903 54 84
189 225 270 283 207 148 504 218 784 184z"/>
<path d="M17715 13155 c-138 -23 -259 -60 -381 -119 -368 -180 -620 -531 -728
-1017 -65 -295 -61 -87 -61 -2914 0 -2746 -2 -2617 51 -2883 116 -585 437
-989 899 -1135 153 -48 222 -59 421 -64 210 -6 309 3 459 42 280 73 533 249
704 490 122 174 223 415 274 660 50 236 57 346 57 919 l0 528 -33 33 c-61 61
-154 53 -197 -17 -19 -32 -20 -49 -20 -483 0 -247 -5 -504 -10 -570 -66 -767
-416 -1234 -988 -1320 -299 -45 -606 21 -826 179 -77 55 -210 192 -263 271
-157 234 -247 536 -273 920 -13 202 -13 1171 1 1255 23 141 133 287 285 376
38 22 356 176 706 342 350 167 663 317 695 335 326 185 554 425 708 742 90
185 147 378 191 645 26 158 33 1136 9 1342 -32 278 -92 502 -190 703 -194 400
-488 634 -915 730 -106 24 -452 30 -575 10z m405 -265 c135 -17 237 -47 355
-105 297 -145 502 -419 605 -809 71 -269 84 -439 77 -1020 -5 -471 -12 -561
-58 -775 -91 -419 -308 -711 -687 -925 -53 -30 -353 -176 -667 -324 -313 -148
-604 -286 -645 -307 -144 -72 -215 -134 -297 -261 -10 -15 -12 323 -9 1591 3
1691 2 1661 45 1882 65 331 197 594 393 779 92 87 145 124 250 174 192 91 417
127 638 100z"/>
<path d="M21783 11885 c-17 -7 -39 -27 -47 -44 -14 -27 -16 -357 -16 -3346 0
-3667 -6 -3371 64 -3400 70 -30 153 -9 180 44 14 27 16 356 16 3351 0 2949 -2
3324 -15 3350 -29 56 -111 76 -182 45z"/>
<path d="M3400 3835 c0 -13 1248 -15 11175 -15 9927 0 11175 2 11175 15 0 13
-1248 15 -11175 15 -9927 0 -11175 -2 -11175 -15z"/>
<path d="M10562 3050 c-28 -17 -33 -18 -38 -5 -4 8 -15 15 -25 15 -18 0 -19
-12 -19 -260 l0 -260 25 0 25 0 0 199 c0 110 4 211 10 225 5 14 23 32 41 41
39 21 74 8 89 -31 6 -14 10 -118 10 -230 l0 -205 28 3 27 3 5 218 c5 204 6
220 25 233 37 27 64 28 90 4 24 -23 25 -25 27 -239 l3 -216 25 0 25 0 3 212
c3 240 -3 270 -59 298 -39 21 -91 14 -132 -16 l-29 -21 -23 22 c-33 31 -92 36
-133 10z"/>
<path d="M11380 3061 c-41 -13 -70 -35 -70 -53 0 -27 17 -30 57 -8 51 27 88
26 118 -5 21 -20 25 -34 25 -85 l0 -60 -57 0 c-111 0 -173 -58 -173 -159 0
-33 7 -70 18 -91 37 -74 141 -91 194 -31 l27 30 3 -27 c2 -19 9 -27 23 -27 19
0 20 7 20 220 0 197 -2 224 -18 249 -31 47 -102 66 -167 47z m130 -323 c0 -73
-22 -125 -62 -147 -91 -51 -160 109 -78 182 25 22 39 27 85 27 l55 0 0 -62z"/>
<path d="M12001 3053 c-64 -32 -71 -56 -71 -253 0 -154 2 -179 19 -206 21 -35
75 -64 118 -64 69 0 133 66 133 138 0 27 -4 32 -24 32 -20 0 -24 -6 -30 -39
-7 -44 -44 -81 -82 -81 -12 0 -36 11 -51 24 l-28 24 0 172 0 172 28 24 c55 47
123 15 134 -64 5 -37 9 -43 27 -40 45 6 27 112 -25 149 -41 29 -105 34 -148
12z"/>
<path d="M12616 3060 c-53 -17 -85 -63 -52 -76 7 -3 29 4 47 15 46 28 84 27
114 -4 21 -20 25 -34 25 -83 l0 -59 -69 -5 c-108 -8 -161 -61 -161 -160 1 -91
58 -158 135 -158 35 0 83 29 92 55 6 17 8 16 13 -10 4 -21 11 -30 25 -30 19 0
20 8 23 200 3 215 -3 257 -43 295 -27 26 -100 36 -149 20z m133 -339 c-4 -72
-7 -83 -33 -110 -37 -39 -69 -39 -107 -2 -25 25 -29 37 -29 81 0 44 4 56 29
81 26 25 37 29 86 29 l57 0 -3 -79z"/>
<path d="M13252 3054 c-18 -9 -43 -31 -55 -48 -21 -30 -22 -40 -22 -246 l0
-215 25 0 25 0 6 215 c3 118 6 216 7 218 11 16 75 42 105 42 34 0 38 3 35 23
-3 19 -10 22 -48 25 -27 1 -58 -5 -78 -14z"/>
<path d="M13763 3054 c-65 -33 -73 -60 -73 -255 0 -153 2 -178 19 -205 38 -63
139 -82 200 -37 52 39 61 74 61 243 0 170 -9 204 -61 243 -37 27 -106 32 -146
11z m118 -63 l29 -29 0 -165 0 -165 -31 -26 c-48 -41 -95 -31 -124 24 -22 42
-21 299 1 341 28 54 82 63 125 20z"/>
<path d="M14418 3051 c-30 -15 -38 -16 -42 -5 -3 8 -15 14 -26 14 -20 0 -20
-5 -20 -260 l0 -260 25 0 25 0 0 196 c0 214 7 251 56 273 36 16 49 14 81 -13
l28 -24 5 -214 5 -213 25 0 25 0 3 203 c2 181 0 208 -16 246 -31 70 -103 94
-174 57z"/>
<path d="M16512 3051 c-39 -25 -42 -25 -42 -6 0 8 -9 15 -20 15 -19 0 -20 -7
-20 -260 l0 -260 25 0 25 0 0 208 c0 227 3 238 59 261 36 15 67 2 81 -35 6
-14 10 -117 10 -230 l0 -204 25 0 25 0 0 194 c0 212 7 249 51 271 38 20 52 19
75 -6 17 -19 20 -43 24 -238 l5 -216 25 0 25 0 3 212 c3 247 -3 274 -64 299
-44 19 -91 12 -129 -17 l-26 -21 -24 22 c-33 31 -92 36 -133 11z"/>
<path d="M17323 3050 c-65 -33 -73 -60 -73 -252 0 -185 9 -217 71 -250 65 -35
143 -13 186 51 22 32 23 44 23 195 0 134 -3 167 -18 195 -37 73 -115 98 -189
61z m116 -56 l31 -26 0 -167 c0 -154 -2 -169 -20 -189 -45 -48 -111 -37 -136
23 -20 48 -20 282 1 330 23 58 76 70 124 29z"/>
<path d="M17963 3051 c-69 -32 -73 -48 -73 -296 l0 -216 23 3 c22 3 22 5 27
211 l5 209 33 29 c24 22 42 29 73 29 36 0 40 2 37 23 -2 18 -10 22 -43 25 -23
1 -57 -6 -82 -17z"/>
<path d="M18485 3056 c-16 -7 -41 -26 -55 -41 -24 -26 -25 -31 -28 -200 -4
-200 3 -227 67 -263 45 -25 79 -28 124 -8 49 20 69 50 75 107 5 49 4 51 -19
47 -19 -2 -25 -11 -30 -42 -12 -71 -86 -100 -134 -51 -22 22 -25 32 -25 105
l0 80 105 0 105 0 0 99 c0 86 -3 102 -22 126 -39 50 -105 66 -163 41z m88 -48
c37 -19 46 -41 47 -105 l0 -63 -80 0 -80 0 0 63 c0 64 9 86 45 105 26 15 41
15 68 0z"/>
<path d="M15504 3019 c-26 -13 -54 -60 -54 -92 0 -13 11 -40 23 -59 l24 -34
-43 -37 c-63 -55 -74 -113 -34 -186 19 -37 70 -61 127 -61 44 0 58 5 87 31 19
16 38 39 42 51 5 18 11 15 60 -33 51 -50 55 -52 71 -36 16 16 14 20 -39 75
l-56 57 38 75 c22 41 39 78 40 83 0 4 -11 7 -25 7 -21 0 -31 -11 -57 -65 l-32
-65 -43 42 -42 42 29 17 c97 60 60 200 -53 198 -23 0 -51 -5 -63 -10z m102
-52 c35 -30 27 -69 -18 -97 l-32 -19 -28 26 c-35 34 -36 66 -2 92 34 27 47 26
80 -2z m-8 -230 l53 -53 -24 -34 c-28 -43 -63 -62 -101 -55 -61 11 -94 65 -75
122 10 32 58 73 84 73 6 0 34 -24 63 -53z"/>
</g>
</svg>
